<?xml version="1.0" encoding="utf-8"?>
<!-- Generator: Adobe Illustrator 24.1.1, SVG Export Plug-In . SVG Version: 6.00 Build 0)  -->
<svg version="1.1" xmlns="http://www.w3.org/2000/svg" xmlns:xlink="http://www.w3.org/1999/xlink" x="0px" y="0px"
	 viewBox="0 0 1000 189" enable-background="new 0 0 1000 189" xml:space="preserve">
<g id="Layer_2">
</g>
<g id="Layer_1">
	<g>
		<path fill="#FCFCFC" d="M514.86,177.56c-3.99,2.08-7.97,2.08-11.96,0c-3.99-2.08-5.98-5.61-5.98-10.59V21.44
			c0-3.65,1.58-6.56,4.73-8.72c3.15-2.16,6.6-2.9,10.34-2.24c3.74,0.67,6.35,2.66,7.85,5.98l54.32,121.35l54.07-121.35
			c2.32-5.15,6.73-7.02,13.21-5.61c6.48,1.41,9.72,4.94,9.72,10.59l0.25,145.53c0,4.98-1.99,8.51-5.98,10.59
			c-3.99,2.08-7.97,2.08-11.96,0c-3.99-2.08-5.98-5.61-5.98-10.59l-0.25-89.71l-42.11,94.69c-1.99,4.32-5.65,6.48-10.96,6.48
			c-5.32,0-8.97-2.16-10.96-6.48l-42.36-94.69v89.71C520.84,171.95,518.85,175.48,514.86,177.56z"/>
		<path fill="#FCFCFC" d="M707.48,142.55l-12.46,29.16c-1.99,4.65-5.23,7.14-9.72,7.48s-8.14-1.25-10.96-4.73
			c-2.83-3.49-3.24-7.56-1.25-12.21l62.8-145.53c1.83-4.49,5.48-6.73,10.96-6.73s9.13,2.24,10.96,6.73l62.8,145.53
			c1.99,4.65,1.58,8.72-1.25,12.21c-2.83,3.49-6.48,5.07-10.96,4.73s-7.73-2.82-9.72-7.48l-12.71-29.16c-0.17,0-0.42,0-0.75,0
			h-77.25C707.81,142.55,707.64,142.55,707.48,142.55z M746.85,51.6l-28.91,67.03h57.81L746.85,51.6z"/>
		<path fill="#FCFCFC" d="M896.99,100.19c-2.08-3.99-2.08-7.97,0-11.96c2.08-3.99,5.61-5.98,10.59-5.98h62.3
			c3.32,0,6.14,1.16,8.47,3.49c2.32,2.33,3.49,5.15,3.49,8.47c0,23.76-7.35,43.82-22.05,60.18c-14.7,16.36-32.19,24.54-52.45,24.54
			c-20.6,0-38.25-8.18-52.95-24.54c-14.7-16.36-22.05-36.42-22.05-60.18c0-23.75,7.35-43.81,22.05-60.18
			c14.7-16.36,32.35-24.54,52.95-24.54c13.46-0.16,26.08,3.41,37.88,10.71c11.79,7.31,20.27,16.03,25.42,26.17
			c2.32,4.49,2.16,8.56-0.5,12.21c-2.66,3.66-6.23,5.4-10.71,5.23c-4.49-0.16-7.89-2.49-10.22-6.98c-3.33-6.48-8.89-12.04-16.7-16.7
			c-7.81-4.65-16.12-6.89-24.92-6.73h-0.25c-14.45,0-26.58,5.98-36.38,17.94c-9.8,11.96-14.7,26.25-14.7,42.86
			c0,16.61,4.9,30.9,14.7,42.86c9.8,11.96,21.93,17.94,36.38,17.94c13.62,0,25.46-5.36,35.51-16.07
			c10.05-10.71,15.08-21.64,15.08-32.77h-50.34C902.59,106.17,899.06,104.17,896.99,100.19z"/>
	</g>
	<g>
		<path fill="#FCFCFC" d="M140.62,109.71c4.45,7.72,6.67,15.94,6.67,24.65c0,14.35-5.45,26.74-16.35,37.19
			c-10.9,10.45-24.07,15.66-39.5,15.66H24.16c-3.64,0-6.72-1.27-9.26-3.81c-2.55-2.54-3.81-5.63-3.81-9.26l0.27-158.82
			c0-3.63,1.27-6.72,3.81-9.26c2.54-2.54,5.63-3.81,9.26-3.81l57.21-0.27c15.62,0,28.88,5.22,39.77,15.66
			c10.9,10.45,16.35,22.84,16.35,37.19c0,13.8-5,25.79-14.98,35.96C130.22,95.68,136.17,101.99,140.62,109.71z M81.64,81.51
			c3.81,0,7.58-0.68,11.31-2.04c3.72-1.36,6.95-3.22,9.67-5.58c2.72-2.36,4.9-5.18,6.54-8.44c1.63-3.27,2.45-6.72,2.45-10.35v-0.27
			c0-7.45-3-13.76-8.99-18.93c-5.99-5.18-12.99-7.76-20.98-7.76H37.24c0,4,0,8.49,0,13.48c0,5,0,9.45,0,13.35c0,3.91,0,8.36,0,13.35
			c0,5,0,9.49,0,13.48L81.64,81.51z M37.51,161.33l53.94-0.27c7.99,0,14.94-2.54,20.84-7.63c5.9-5.08,8.85-11.35,8.85-18.8v-0.27
			c0-7.44-2.95-13.76-8.85-18.93c-5.9-5.18-12.85-7.76-20.84-7.76h-9.81H37.51V161.33z"/>
		<path fill="#FCFCFC" d="M304.62,8.5c2.27,4.36,2.27,8.72,0,13.08c-2.27,4.36-6.13,6.54-11.58,6.54h-91.53v53.4h63.48
			c5.45,0,9.3,2.18,11.58,6.54c2.27,4.36,2.27,8.72,0,13.08c-2.27,4.36-6.13,6.54-11.58,6.54h-63.48v53.4h91.53
			c5.45,0,9.31,2.18,11.58,6.54c2.27,4.36,2.27,8.72,0,13.08c-2.27,4.36-6.13,6.54-11.58,6.54H188.43c-3.64,0-6.72-1.27-9.26-3.81
			c-2.55-2.54-3.81-5.63-3.81-9.26V94.59V15.04c0-3.63,1.27-6.72,3.81-9.26c2.54-2.54,5.63-3.81,9.26-3.81h104.61
			C298.49,1.96,302.35,4.14,304.62,8.5z"/>
		<path fill="#FCFCFC" d="M475.84,174.14c0,5.45-2.18,9.31-6.54,11.58c-4.36,2.27-8.72,2.27-13.08,0
			c-4.36-2.27-6.54-6.13-6.54-11.58v-66.47h-83.91v66.47c0,5.45-2.18,9.31-6.54,11.58c-4.36,2.27-8.72,2.27-13.08,0
			c-4.36-2.27-6.54-6.13-6.54-11.58V94.59V15.04c0-5.45,2.18-9.3,6.54-11.58c4.36-2.27,8.72-2.27,13.08,0
			c4.36,2.27,6.54,6.13,6.54,11.58v66.47h83.91V15.04c0-5.45,2.18-9.3,6.54-11.58c4.36-2.27,8.72-2.27,13.08,0
			c4.36,2.27,6.54,6.13,6.54,11.58v79.55V174.14z"/>
	</g>
</g>
</svg>
